# xmcd
#
# Track frame offsets:
# 150
# 21906
# 39535
# 55500
# 67795
# 87658
# 104738
# 122390
# 143914
# 158851
#
# Disc length: 2362 seconds
#
# Revision: 1
# Processed by: cddbd v1.5.2PL0 Copyright (c) Steve Scherf et al.
# Submitted via: CedeCatalogueitor 2.6.0.6 http://personales.ya.com/cdcatalogueitor
#
DISCID=8109380a
DTITLE=Maga - A La Hora Del Sol
DYEAR=1900
DGENRE=
TTITLE0=Sal Y Otras Historias
TTITLE1=Silencio
TTITLE2=Martes
TTITLE3=La Balsa
TTITLE4=Harás Y Romperas
TTITLE5=Si, Pero No Lo Soy
TTITLE6=Ultimo Mar
TTITLE7=Hoy
TTITLE8=Canción Para Septiembre
TTITLE9=Hasta Despertar
EXTD=
EXTT0=
EXTT1=
EXTT2=
EXTT3=
EXTT4=
EXTT5=
EXTT6=
EXTT7=
EXTT8=
EXTT9=
PLAYORDER=
